Coordinates
version=1
nRows=4
nColumns=63
inDegrees=yes

Units are S.I. units (second, meters, Newtons, ...)
If the header above contains a line with 'inDegrees', this indicates whether rotational values are in degrees (yes) or radians (no).

endheader
time	pelvis_tilt	pelvis_list	pelvis_rotation	pelvis_tx	pelvis_ty	pelvis_tz	hip_flexion_r	hip_adduction_r	hip_rotation_r	knee_angle_r	knee_angle_r_beta	ankle_angle_r	subtalar_angle_r	mtp_angle_r	hip_flexion_l	hip_adduction_l	hip_rotation_l	knee_angle_l	knee_angle_l_beta	ankle_angle_l	subtalar_angle_l	mtp_angle_l	L5_S1_Flex_Ext	L5_S1_Lat_Bending	L5_S1_axial_rotation	L4_L5_Flex_Ext	L4_L5_Lat_Bending	L4_L5_axial_rotation	L3_L4_Flex_Ext	L3_L4_Lat_Bending	L3_L4_axial_rotation	L2_L3_Flex_Ext	L2_L3_Lat_Bending	L2_L3_axial_rotation	L1_L2_Flex_Ext	L1_L2_Lat_Bending	L1_L2_axial_rotation	L1_T12_Flex_Ext	L1_T12_Lat_Bending	L1_T12_axial_rotation	Abs_r3	Abs_r2	Abs_r1	Abs_t1	Abs_t2	neck_flexion	neck_bending	neck_rotation	arm_flex_r	arm_add_r	arm_rot_r	elbow_flex_r	pro_sup_r	wrist_flex_r	wrist_dev_r	arm_flex_l	arm_add_l	arm_rot_l	elbow_flex_l	pro_sup_l	wrist_flex_l	wrist_dev_l
      1.49152542	      4.32043432	     -5.57470954	     88.00608431	     -0.09682203	      0.79690843	      0.68082128	      5.61542122	      1.02015780	     -3.26528979	      6.68476655	      0.11667119	     24.73695574	     12.39298477	      0.00000000	      4.66390347	     -3.01969403	     -2.43450007	      5.08794385	      0.08880137	     26.52659352	     -1.80027591	      0.00000000	      0.03461259	      0.85089551	      0.17762755	      0.06427905	      1.13169103	      0.18872928	      0.05686503	      2.06886735	      0.18872928	      0.03955873	      2.06886735	      0.15542411	      0.03214126	      1.73514613	      0.14432239	      0.01977764	      1.31803715	      0.13322067	      0.24723430	      9.62550023	      0.98791117	      0.00000000	      0.00000000	     23.64591687	     -1.04969509	     20.67709971	      5.72629393	    -17.86281341	    106.14353065	     10.29030282	      6.27707749	     -4.62008826	    -10.39705082	     10.79536994	     -9.62486178	    110.92760441	     16.26956730	     17.92613095	     -8.70383561	     -7.51616580
      1.50847458	      4.29631550	     -5.45282930	     88.16757303	     -0.09698152	      0.79708549	      0.68127337	      5.50517235	      0.99559011	     -3.32795329	      6.71667944	      0.11722817	     24.68049760	     12.39320258	      0.00000000	      4.63150585	     -3.01237100	     -2.24309805	      5.14185397	      0.08974228	     26.72112562	     -1.58131884	      0.00000000	      0.00830440	      0.84539750	      0.17276897	      0.01542210	      1.12437868	      0.18356703	      0.01364330	      2.05549949	      0.18356703	      0.00949110	      2.05549949	      0.15117285	      0.00771147	      1.72393459	      0.14037479	      0.00474513	      1.30952074	      0.12957673	      0.05931749	      9.56330566	      0.96088918	      0.00000000	      0.00000000	     23.84899617	     -1.26061864	     20.24516521	      5.97686528	    -17.74941744	    106.24828858	      9.95222788	      6.40504400	     -4.41661924	    -11.01347915	     11.03567852	     -9.60773215	    110.82791827	     16.30599111	     18.07382503	     -8.52509583	     -7.27315606
      1.52542373	      4.29235490	     -5.44984567	     88.28560590	     -0.09706182	      0.79702902	      0.68137058	      5.44551325	      1.01590323	     -3.19747642	      6.67935535	      0.11657674	     24.54980392	     12.15582005	      0.00000000	      4.67237898	     -3.06019372	     -2.64281499	      5.17163123	      0.09026199	     27.04835578	     -0.58089791	      0.00000000	      0.01031032	      0.84098593	      0.16562937	      0.01914730	      1.11851129	      0.17598120	      0.01693883	      2.04477320	      0.17598120	      0.01178367	      2.04477320	      0.14492570	      0.00957417	      1.71493851	      0.13457386	      0.00589132	      1.30268721	      0.12422203	      0.07364561	      9.51340107	      0.92118085	      0.00000000	      0.00000000	     24.10520480	     -1.56944912	     19.48968023	      6.18657243	    -17.76887692	    105.33558371	      9.96658773	      7.79600325	     -4.31289093	    -11.41010695	     11.21719970	     -9.70193513	    109.99242147	     16.60050568	     19.89283142	     -8.56947592	     -6.67649764
      1.54237288	      4.20763398	     -5.48389806	     88.13303294	     -0.09680834	      0.79695557	      0.68136271	      5.59312820	      0.88354112	     -4.16559740	      7.03650591	      0.12281020	     24.81036082	     13.63325914	      0.00000000	      4.70559399	     -3.01176727	     -2.91100605	      5.20589501	      0.09086001	     27.18471555	     -0.31375148	      0.00000000	      0.01393595	      0.83070774	      0.19753419	      0.02588046	      1.10484129	      0.20988007	      0.02289538	      2.01978279	      0.20988007	      0.01592740	      2.01978279	      0.17284241	      0.01294093	      1.69397922	      0.16049653	      0.00796300	      1.28676628	      0.14815064	      0.09954312	      9.39713205	      1.09862589	      0.00000000	      0.00000000	     24.27527445	     -1.64228721	     19.27536870	      6.64785683	    -17.31751321	    111.14429965	      8.89706918	      4.68256727	     -3.74103106	    -11.65951712	     11.41739631	     -9.65958577	    109.90651803	     16.64153482	     21.58288572	     -8.54849122	     -6.10600791
